<?xml version="1.0" encoding="UTF-8"?>
<svg xmlns="http://www.w3.org/2000/svg" xmlns:xlink="http://www.w3.org/1999/xlink" width="127pt" height="127pt" viewBox="0 0 127 127" version="1.1">
<defs>
<clipPath id="clip1">
  <path d="M -3.261719 -3.261719 L 129.828125 -3.261719 L 129.828125 129.828125 L -3.261719 129.828125 Z M 116.902344 8.542969 L 70.246094 80.113281 L 77.390625 32.457031 L 31.855469 16.6875 Z M 116.902344 8.542969 "/>
</clipPath>
<clipPath id="clip2">
  <path d="M -3.261719 -3.261719 L 129.828125 -3.261719 L 129.828125 129.828125 L -3.261719 129.828125 Z M -3.261719 -3.261719 L 10.164062 119.835938 C 10.164062 123.835938 4.164062 123.835938 4.164062 119.835938 C 4.164062 115.835938 10.164062 115.835938 10.164062 119.835938 Z M -3.261719 -3.261719 "/>
</clipPath>
<clipPath id="clip3">
  <path d="M -3.261719 -3.261719 L 129.828125 -3.261719 L 129.828125 129.828125 L -3.261719 129.828125 Z M -3.261719 -3.261719 L 122.835938 7.164062 C 122.835938 11.164062 116.835938 11.164062 116.835938 7.164062 C 116.835938 3.164062 122.835938 3.164062 122.835938 7.164062 Z M -3.261719 -3.261719 "/>
</clipPath>
<clipPath id="clip4">
  <path d="M -3.261719 -3.261719 L 129.828125 -3.261719 L 129.828125 129.828125 L -3.261719 129.828125 Z M -3.261719 -3.261719 L 155.390625 8.542969 C 155.390625 29.796875 138.15625 47.027344 116.902344 47.027344 C 95.648438 47.027344 78.414062 29.796875 78.414062 8.542969 C 78.414062 -12.714844 95.648438 -29.945312 116.902344 -29.945312 C 138.15625 -29.945312 155.390625 -12.714844 155.390625 8.542969 "/>
</clipPath>
</defs>
<g id="surface11535">
<g clip-path="url(#clip1)" clip-rule="evenodd">
<g clip-path="url(#clip2)" clip-rule="evenodd">
<g clip-path="url(#clip3)" clip-rule="evenodd">
<g clip-path="url(#clip4)" clip-rule="evenodd">
<path style="fill:none;stroke-width:10.845445;stroke-linecap:butt;stroke-linejoin:miter;stroke:rgb(17.96875%,20.3125%,21.09375%);stroke-opacity:0.8;stroke-miterlimit:10;" d="M -0.00105674 0.00105674 C 23.95604 -52.241353 74.758647 -103.04396 127.001057 -127.001057 " transform="matrix(0.887165,0,0,0.887165,7.165,119.835)"/>
</g>
</g>
</g>
</g>
<path style=" stroke:none;fill-rule:evenodd;fill:rgb(17.96875%,20.3125%,21.09375%);fill-opacity:0.8;" d="M 116.902344 8.542969 L 70.246094 80.113281 L 77.390625 32.457031 L 31.855469 16.6875 Z M 116.902344 8.542969 "/>
</g>
</svg>
